<?xml version="1.0" encoding="UTF-8"?>
<svg id="Layer_1" data-name="Layer 1" xmlns="http://www.w3.org/2000/svg" viewBox="0 0 1500 1500">
  <defs>
    <style>
      .cls-1 {
        fill: #490383;
      }

      .cls-2 {
        fill: #f38b21;
        stroke: #f38b21;
        stroke-miterlimit: 10;
        stroke-width: 5px;
      }
    </style>
  </defs>
  <g>
    <path class="cls-1" d="M876.26,622.22c-12.83-22.14-30.39-39.87-52.19-52.71-21.86-12.86-46.81-19.38-74.16-19.38s-52.37,6.52-74.38,19.37c-21.98,12.84-39.63,30.58-52.46,52.72-12.84,22.16-19.36,47.43-19.36,75.1s5.96,52.67,17.72,74.59c11.8,22.01,28.16,39.7,48.63,52.58,20.59,12.96,44.11,19.53,69.93,19.53s49.34-6.57,69.93-19.53c5.98-3.76,11.61-7.94,16.88-12.51.79,8.08,4.04,15.02,9.7,20.66,6.56,6.57,14.85,9.9,24.62,9.9s18.06-3.33,24.62-9.89c6.56-6.56,9.89-14.84,9.89-24.62v-116.73l-.1-.05c-.89-25.29-7.36-48.48-19.25-69.02ZM790.29,770.15c-11.71,7.17-25.29,10.81-40.37,10.81s-28.28-3.64-40.17-10.83c-11.95-7.24-21.54-17.27-28.48-29.85-6.98-12.61-10.52-27.06-10.52-42.95s3.54-30.83,10.52-43.46c6.95-12.56,16.53-22.6,28.48-29.84,11.89-7.19,25.41-10.83,40.17-10.83s28.66,3.64,40.37,10.8c11.78,7.22,21.2,17.25,27.99,29.8,6.84,12.65,10.31,27.29,10.31,43.53s-3.47,30.4-10.31,43.03c-6.8,12.56-16.21,22.58-27.99,29.8Z"/>
    <path class="cls-1" d="M547.79,620.64c-11.81-22.01-28.17-39.7-48.63-52.58-20.6-12.96-44.12-19.53-69.92-19.53-20.85,0-40.35,4.41-57.94,13.12-10.43,5.16-20.02,11.48-28.67,18.89v-111.67c0-10.09-3.24-18.46-9.64-24.87-6.4-6.39-14.77-9.64-24.86-9.64s-17.96,3.21-24.51,9.53c-6.63,6.42-10,14.82-10,24.98v186.88l.02,7.5c.06,19.59,15.96,35.73,35.54,35.43,27.76-.43,33.73-28.99,37.78-38.72,5.9-14.2,14.92-23.51,17.73-26.28,4.32-4.27,9.15-8.02,14.46-11.24,11.89-7.19,25.41-10.83,40.17-10.83s28.66,3.64,40.37,10.8c11.83,7.25,21.35,17.24,28.31,29.67,6.96,12.45,10.49,26.97,10.49,43.16,0,1.17-.16,2.29-.2,3.45-.48,14.54-3.87,27.95-10.34,39.8-6.96,12.74-16.47,22.86-28.25,30.08-11.71,7.17-25.29,10.81-40.37,10.81s-28.28-3.64-40.17-10.83c-4.12-2.5-7.96-5.34-11.48-8.51-2.72-2.44-10.45-9.74-16.69-21.47-7.86-14.78-9.19-28.79-9.33-36.65-1.75,2.08-4.53,4.98-8.51,7.6-14.52,9.54-36.1,9.47-50.61-1.37-2.74-2.05-6.49-5.42-9.88-10.79.71,16.32,4.2,44.58,20.54,72.94,10.22,17.73,21.87,29.27,24.9,32.21,8.09,7.84,17.13,14.7,27.06,20.55,21.85,12.87,46.8,19.39,74.16,19.39s52.8-6.52,74.65-19.39c21.8-12.83,39.36-30.56,52.19-52.71,12.31-21.24,18.73-45.34,19.26-71.65.03-.03.04-.04.07-.07.5-28.88-5.45-55.12-17.69-77.96Z"/>
    <path class="cls-1" d="M1011.17,654.89c6.78-12.53,16.17-22.45,27.92-29.51,11.72-7.03,25.49-10.6,40.94-10.6s29.21,3.57,40.94,10.6c11.72,7.04,21.02,16.94,27.63,29.43,6.67,12.61,10.05,26.41,10.09,42.9,5.98-7.39,12.42-10.84,15.94-12.39,13.87-6.14,31.4-4.58,43.46,5.02,4.8,3.82,7.69,8.07,9.27,10.79-.24-16.06-2.77-47.78-20.45-78.49-3.22-5.59-10.51-18.04-23.91-31.09-8.29-8.07-17.61-15.09-27.92-20.99-21.84-12.5-47.09-18.83-75.06-18.83s-53.72,6.34-75.56,18.83c-21.87,12.53-39.31,30.06-51.82,52.09-12.45,21.92-18.78,47.5-18.82,76.02,0,0,0,0,0,0-.04,28.4,6.3,53.98,18.82,76.01,12.52,22.05,29.95,39.57,51.83,52.09,21.82,12.5,47.24,18.84,75.56,18.84s53.73-6.34,75.55-18.84c21.88-12.52,39.24-30.06,51.6-52.13,6.9-12.32,11.89-25.75,14.95-40.15,3.89-18.35-10.21-35.65-28.97-35.65h-2.66c-16.48,0-30.88,11.06-35.21,26.96-1.64,6.02-3.87,11.66-6.68,16.92-6.61,12.35-15.92,22.17-27.65,29.22-11.73,7.04-25.51,10.61-40.94,10.61s-29.21-3.57-40.94-10.61c-11.76-7.06-21.16-16.91-27.94-29.3-6.83-12.46-10.29-27.17-10.29-43.74,0-.08.01-.16.01-.25.04-16.48,3.49-31.21,10.3-43.78Z"/>
  </g>
  <g>
    <path class="cls-2" d="M459.8,1022.19c-4.27,0-8.33-.67-12.2-2-3.87-1.33-7.23-3.2-10.1-5.6-2.87-2.4-4.97-5.17-6.3-8.3-.67-1.4-.65-2.7.05-3.9s1.88-1.97,3.55-2.3c1.2-.27,2.38-.08,3.55.55,1.17.63,2.05,1.58,2.65,2.85.8,1.67,2.12,3.2,3.95,4.6,1.83,1.4,4.05,2.53,6.65,3.4,2.6.87,5.33,1.3,8.2,1.3,3.2,0,6.15-.5,8.85-1.5,2.7-1,4.88-2.45,6.55-4.35,1.67-1.9,2.5-4.25,2.5-7.05,0-3.53-1.38-6.7-4.15-9.5-2.77-2.8-7.32-4.53-13.65-5.2-8.27-.8-14.77-3.23-19.5-7.3-4.73-4.07-7.1-9.1-7.1-15.1,0-4.4,1.23-8.13,3.7-11.2,2.47-3.07,5.82-5.4,10.05-7,4.23-1.6,8.95-2.4,14.15-2.4,4.07,0,7.62.57,10.65,1.7,3.03,1.13,5.68,2.7,7.95,4.7,2.27,2,4.23,4.37,5.9,7.1.93,1.47,1.32,2.85,1.15,4.15-.17,1.3-.82,2.32-1.95,3.05-1.27.8-2.63.97-4.1.5-1.47-.47-2.57-1.33-3.3-2.6-1.07-1.93-2.37-3.57-3.9-4.9-1.53-1.33-3.33-2.38-5.4-3.15-2.07-.77-4.5-1.15-7.3-1.15-4.93-.07-9.07.85-12.4,2.75-3.33,1.9-5,4.82-5,8.75,0,2,.52,3.92,1.55,5.75,1.03,1.83,2.93,3.42,5.7,4.75,2.77,1.33,6.75,2.27,11.95,2.8,7.93.8,14.12,3.22,18.55,7.25,4.43,4.03,6.65,9.35,6.65,15.95,0,3.8-.79,7.1-2.35,9.9-1.57,2.8-3.67,5.15-6.3,7.05-2.63,1.9-5.63,3.32-9,4.25-3.37.93-6.85,1.4-10.45,1.4Z"/>
    <path class="cls-2" d="M539.9,1022.19c-5.87,0-11.23-.98-16.1-2.95-4.87-1.97-9.05-4.73-12.55-8.3-3.5-3.57-6.22-7.8-8.15-12.7-1.93-4.9-2.9-10.28-2.9-16.15s.96-11.23,2.9-16.1c1.93-4.87,4.65-9.08,8.15-12.65s7.68-6.33,12.55-8.3c4.87-1.96,10.23-2.95,16.1-2.95s11.22.98,16.05,2.95c4.83,1.97,9.02,4.73,12.55,8.3,3.53,3.57,6.27,7.78,8.2,12.65,1.93,4.87,2.9,10.23,2.9,16.1s-.97,11.25-2.9,16.15c-1.93,4.9-4.67,9.13-8.2,12.7-3.53,3.57-7.72,6.33-12.55,8.3-4.83,1.97-10.18,2.95-16.05,2.95ZM539.9,1012.79c4.33,0,8.32-.78,11.95-2.35,3.63-1.57,6.78-3.73,9.45-6.5,2.67-2.77,4.72-6.02,6.15-9.75,1.43-3.73,2.15-7.77,2.15-12.1s-.72-8.37-2.15-12.1c-1.43-3.73-3.48-6.98-6.15-9.75-2.67-2.77-5.82-4.92-9.45-6.45-3.63-1.53-7.62-2.3-11.95-2.3s-8.32.77-11.95,2.3c-3.63,1.54-6.77,3.68-9.4,6.45-2.63,2.77-4.68,6.02-6.15,9.75-1.47,3.73-2.2,7.77-2.2,12.1s.73,8.37,2.2,12.1c1.47,3.73,3.52,6.98,6.15,9.75,2.63,2.77,5.77,4.93,9.4,6.5,3.63,1.57,7.62,2.35,11.95,2.35Z"/>
    <path class="cls-2" d="M601,1021.19c-1.47,0-2.68-.5-3.65-1.5-.97-1-1.45-2.23-1.45-3.7v-67.7c0-1.46.5-2.7,1.5-3.7s2.2-1.5,3.6-1.5,2.7.5,3.7,1.5,1.5,2.23,1.5,3.7v62.5h36.2c1.47,0,2.7.5,3.7,1.5s1.5,2.23,1.5,3.7-.5,2.7-1.5,3.7-2.23,1.5-3.7,1.5h-41.4Z"/>
    <path class="cls-2" d="M692.8,1022.79c-6.4,0-12.07-1.18-17-3.55-4.93-2.37-8.78-5.65-11.55-9.85-2.77-4.2-4.15-9-4.15-14.4v-46.7c0-1.53.5-2.78,1.5-3.75,1-.96,2.23-1.45,3.7-1.45s2.78.48,3.75,1.45c.97.97,1.45,2.22,1.45,3.75v46.7c0,3.6.95,6.78,2.85,9.55,1.9,2.77,4.53,4.93,7.9,6.5,3.37,1.57,7.21,2.35,11.55,2.35s7.92-.78,11.15-2.35c3.23-1.57,5.77-3.73,7.6-6.5,1.83-2.77,2.75-5.95,2.75-9.55v-46.7c0-1.53.5-2.78,1.5-3.75,1-.96,2.23-1.45,3.7-1.45s2.77.48,3.7,1.45c.93.97,1.4,2.22,1.4,3.75v46.7c0,5.4-1.35,10.2-4.05,14.4s-6.45,7.48-11.25,9.85c-4.8,2.37-10.3,3.55-16.5,3.55Z"/>
    <path class="cls-2" d="M740.9,952.69c-1.4,0-2.55-.45-3.45-1.35-.9-.9-1.35-2.05-1.35-3.45s.45-2.55,1.35-3.45c.9-.9,2.05-1.35,3.45-1.35h53.5c1.4,0,2.55.45,3.45,1.35s1.35,2.05,1.35,3.45-.45,2.55-1.35,3.45c-.9.9-2.05,1.35-3.45,1.35h-53.5ZM767.7,1021.19c-1.47,0-2.7-.5-3.7-1.5s-1.5-2.23-1.5-3.7v-72.9h10.4v72.9c0,1.47-.5,2.7-1.5,3.7s-2.23,1.5-3.7,1.5Z"/>
    <path class="cls-2" d="M815.9,1021.19c-1.47,0-2.7-.5-3.7-1.5s-1.5-2.23-1.5-3.7v-67.7c0-1.53.5-2.78,1.5-3.75,1-.96,2.23-1.45,3.7-1.45s2.78.48,3.75,1.45c.97.97,1.45,2.22,1.45,3.75v67.7c0,1.47-.48,2.7-1.45,3.7-.97,1-2.22,1.5-3.75,1.5Z"/>
    <path class="cls-2" d="M877.2,1022.19c-5.87,0-11.23-.98-16.1-2.95-4.87-1.97-9.05-4.73-12.55-8.3-3.5-3.57-6.22-7.8-8.15-12.7-1.93-4.9-2.9-10.28-2.9-16.15s.96-11.23,2.9-16.1c1.93-4.87,4.65-9.08,8.15-12.65s7.68-6.33,12.55-8.3c4.87-1.96,10.23-2.95,16.1-2.95s11.22.98,16.05,2.95c4.83,1.97,9.02,4.73,12.55,8.3,3.53,3.57,6.27,7.78,8.2,12.65,1.93,4.87,2.9,10.23,2.9,16.1s-.97,11.25-2.9,16.15c-1.93,4.9-4.67,9.13-8.2,12.7-3.53,3.57-7.72,6.33-12.55,8.3-4.83,1.97-10.18,2.95-16.05,2.95ZM877.2,1012.79c4.33,0,8.32-.78,11.95-2.35,3.63-1.57,6.78-3.73,9.45-6.5,2.67-2.77,4.72-6.02,6.15-9.75,1.43-3.73,2.15-7.77,2.15-12.1s-.72-8.37-2.15-12.1c-1.43-3.73-3.48-6.98-6.15-9.75-2.67-2.77-5.82-4.92-9.45-6.45-3.63-1.53-7.62-2.3-11.95-2.3s-8.32.77-11.95,2.3c-3.63,1.54-6.77,3.68-9.4,6.45-2.63,2.77-4.68,6.02-6.15,9.75-1.47,3.73-2.2,7.77-2.2,12.1s.73,8.37,2.2,12.1c1.47,3.73,3.52,6.98,6.15,9.75,2.63,2.77,5.77,4.93,9.4,6.5,3.63,1.57,7.62,2.35,11.95,2.35Z"/>
    <path class="cls-2" d="M938.3,1021.19c-1.47,0-2.68-.5-3.65-1.5-.97-1-1.45-2.23-1.45-3.7v-67.7c0-1.53.48-2.78,1.45-3.75.97-.96,2.18-1.45,3.65-1.45,1.6,0,2.93.63,4,1.9l43.6,58v-54.7c0-1.53.5-2.78,1.5-3.75,1-.96,2.23-1.45,3.7-1.45s2.77.48,3.7,1.45c.93.97,1.4,2.22,1.4,3.75v67.7c0,1.47-.47,2.7-1.4,3.7s-2.17,1.5-3.7,1.5c-.67,0-1.38-.15-2.15-.45-.77-.3-1.38-.75-1.85-1.35l-43.6-58v54.6c0,1.47-.48,2.7-1.45,3.7-.97,1-2.22,1.5-3.75,1.5Z"/>
    <path class="cls-2" d="M1041,1022.19c-4.27,0-8.33-.67-12.2-2-3.87-1.33-7.23-3.2-10.1-5.6-2.87-2.4-4.97-5.17-6.3-8.3-.67-1.4-.65-2.7.05-3.9s1.88-1.97,3.55-2.3c1.2-.27,2.38-.08,3.55.55,1.17.63,2.05,1.58,2.65,2.85.8,1.67,2.12,3.2,3.95,4.6,1.83,1.4,4.05,2.53,6.65,3.4,2.6.87,5.33,1.3,8.2,1.3,3.2,0,6.15-.5,8.85-1.5,2.7-1,4.88-2.45,6.55-4.35,1.67-1.9,2.5-4.25,2.5-7.05,0-3.53-1.38-6.7-4.15-9.5-2.77-2.8-7.32-4.53-13.65-5.2-8.27-.8-14.77-3.23-19.5-7.3-4.73-4.07-7.1-9.1-7.1-15.1,0-4.4,1.23-8.13,3.7-11.2,2.47-3.07,5.82-5.4,10.05-7,4.23-1.6,8.95-2.4,14.15-2.4,4.07,0,7.62.57,10.65,1.7,3.03,1.13,5.68,2.7,7.95,4.7,2.27,2,4.23,4.37,5.9,7.1.93,1.47,1.32,2.85,1.15,4.15-.17,1.3-.82,2.32-1.95,3.05-1.27.8-2.63.97-4.1.5-1.47-.47-2.57-1.33-3.3-2.6-1.07-1.93-2.37-3.57-3.9-4.9-1.53-1.33-3.33-2.38-5.4-3.15-2.07-.77-4.5-1.15-7.3-1.15-4.93-.07-9.07.85-12.4,2.75-3.33,1.9-5,4.82-5,8.75,0,2,.52,3.92,1.55,5.75,1.03,1.83,2.93,3.42,5.7,4.75,2.77,1.33,6.75,2.27,11.95,2.8,7.93.8,14.12,3.22,18.55,7.25,4.43,4.03,6.65,9.35,6.65,15.95,0,3.8-.79,7.1-2.35,9.9-1.57,2.8-3.67,5.15-6.3,7.05-2.63,1.9-5.63,3.32-9,4.25-3.37.93-6.85,1.4-10.45,1.4Z"/>
  </g>
</svg>
